<svg xmlns="http://www.w3.org/2000/svg" version="1.1" xmlns:xlink="http://www.w3.org/1999/xlink" xmlns:svgjs="http://svgjs.com/svgjs" width="1440" height="1000" preserveAspectRatio="none" viewBox="0 0 1440 1000"><g mask="url(&quot;#SvgjsMask1011&quot;)" fill="none"><path d="M30.297,126.508C61.285,126.607,78.912,94.087,92.829,66.4C104.966,42.253,110.453,15.164,98.428,-9.039C84.954,-36.158,60.579,-59.569,30.297,-59.463C0.148,-59.358,-23.686,-35.609,-37.016,-8.567C-48.827,15.393,-43.464,42.094,-31.549,66.003C-17.762,93.669,-0.614,126.409,30.297,126.508" fill="rgba(116, 242, 206, 0.34)" class="triangle-float1"></path><path d="M116.326,263.446C170.203,262.925,221.25,239.076,249.911,193.451C280.557,144.667,289.065,83.103,261.34,32.602C232.657,-19.644,175.927,-50.286,116.326,-49.877C57.423,-49.473,3.561,-16.791,-25.283,34.568C-53.545,84.89,-52.173,146.996,-21.807,196.077C7.082,242.77,61.422,263.977,116.326,263.446" fill="rgba(116, 242, 206, 0.34)" class="triangle-float3"></path><path d="M20.486,104.415C49.987,104.15,76.409,86.835,90.772,61.066C104.759,35.972,104.615,5.071,89.463,-19.337C75.07,-42.523,47.775,-52.381,20.486,-52.156C-6.356,-51.934,-32.184,-40.893,-46.544,-18.214C-61.977,6.159,-65.854,37.033,-52.018,62.346C-37.654,88.624,-9.461,104.684,20.486,104.415" fill="rgba(116, 242, 206, 0.34)" class="triangle-float2"></path><path d="M1288.429,136.068C1321.149,135.251,1353.945,124.042,1370.811,95.992C1388.149,67.156,1385.363,31.308,1369.144,1.828C1352.267,-28.848,1323.436,-54.341,1288.429,-53.751C1254.192,-53.174,1229.545,-25.107,1212.296,4.473C1194.876,34.346,1181.282,70.359,1198.599,100.292C1215.898,130.193,1253.895,136.93,1288.429,136.068" fill="rgba(116, 242, 206, 0.34)" class="triangle-float1"></path><path d="M1467.726,493.591C1561.06,490.472,1641.794,436.038,1690.012,356.063C1740.064,273.047,1764.129,168.497,1713.615,85.762C1664.622,5.517,1561.693,-11.147,1467.726,-8.014C1380.321,-5.1,1296.71,28.175,1248.684,101.262C1195.262,182.561,1170.705,286.894,1218.127,371.832C1266.494,458.463,1368.563,496.905,1467.726,493.591" fill="rgba(116, 242, 206, 0.34)" class="triangle-float3"></path><path d="M1373.766,327.654C1436.991,322.93,1475.599,265.768,1507.458,210.953C1539.55,155.739,1573.284,92.269,1543.372,35.844C1512.197,-22.963,1440.277,-43.761,1373.766,-41.24C1311.866,-38.894,1258.091,-4.492,1225.058,47.909C1189.311,104.616,1168.858,174.712,1200.323,233.903C1233.386,296.099,1303.524,332.903,1373.766,327.654" fill="rgba(116, 242, 206, 0.34)" class="triangle-float1"></path><path d="M133.763,1124.592C195.553,1120.737,233.161,1062.558,261.539,1007.535C286.952,958.261,298.638,902.469,273.914,852.846C246.319,797.459,195.576,753.967,133.763,751.072C67.146,747.952,2.265,780.836,-31.135,838.559C-64.586,896.371,-58.335,967.546,-24.976,1025.411C8.423,1083.345,67.021,1128.756,133.763,1124.592" fill="rgba(116, 242, 206, 0.34)" class="triangle-float1"></path><path d="M188.828,1241.55C275.342,1239.361,348.298,1180.727,388.161,1103.913C424.946,1033.031,416.675,949.488,376.087,880.713C336.226,813.169,267.209,768.897,188.828,766.147C105.213,763.214,21.671,795.769,-22.659,866.726C-69.569,941.813,-72.289,1037.356,-28.782,1114.465C15.46,1192.876,98.826,1243.828,188.828,1241.55" fill="rgba(116, 242, 206, 0.34)" class="triangle-float2"></path><path d="M193.153,1246.76C278.648,1245.078,346.667,1180.381,385.362,1104.125C420.33,1035.214,410.964,956.551,375.168,888.066C335.958,813.049,277.769,738.662,193.153,736.39C105.739,734.043,35.402,801.127,-6.615,877.816C-46.822,951.2,-52.459,1038.37,-12.617,1111.953C29.229,1189.237,105.284,1248.488,193.153,1246.76" fill="rgba(116, 242, 206, 0.34)" class="triangle-float3"></path><path d="M1401.358,1179.168C1478.115,1182.262,1549.404,1135.461,1585.058,1067.417C1618.476,1003.641,1599.739,929.946,1564.989,866.886C1528.649,800.941,1476.62,736.287,1401.358,734.061C1323.196,731.749,1255.024,786.742,1220.059,856.685C1188.418,919.98,1206.955,991.893,1241.633,1053.576C1277.208,1116.854,1328.825,1176.245,1401.358,1179.168" fill="rgba(116, 242, 206, 0.34)" class="triangle-float2"></path><path d="M1449.862,1234.447C1528.839,1229.39,1601.491,1188.743,1638.922,1119.016C1674.494,1052.751,1660.619,975.001,1624.574,908.992C1586.643,839.53,1528.758,779.06,1449.862,772.796C1359.82,765.647,1267.717,800.487,1219.432,876.823C1167.965,958.189,1161.494,1065.312,1213.641,1146.244C1262.434,1221.971,1359.961,1240.203,1449.862,1234.447" fill="rgba(116, 242, 206, 0.34)" class="triangle-float3"></path><path d="M1464.946,1296.719C1563.039,1302.584,1662.116,1252.035,1705.896,1164.058C1746.307,1082.852,1701.522,993.078,1654.713,915.384C1609.972,841.124,1551.534,768.481,1464.946,764.133C1371.874,759.46,1282.255,811.956,1239.029,894.513C1198.378,972.152,1226.3,1061.54,1269.219,1137.949C1313.314,1216.453,1375.067,1291.345,1464.946,1296.719" fill="rgba(116, 242, 206, 0.34)" class="triangle-float1"></path></g><defs><mask id="SvgjsMask1011"><rect width="1440" height="1000" fill="#ffffff"></rect></mask><style>
            @keyframes float1 {
                0%{transform: translate(0, 0)}
                50%{transform: translate(-10px, 0)}
                100%{transform: translate(0, 0)}
            }

            .triangle-float1 {
                animation: float1 5s infinite;
            }

            @keyframes float2 {
                0%{transform: translate(0, 0)}
                50%{transform: translate(-5px, -5px)}
                100%{transform: translate(0, 0)}
            }

            .triangle-float2 {
                animation: float2 4s infinite;
            }

            @keyframes float3 {
                0%{transform: translate(0, 0)}
                50%{transform: translate(0, -10px)}
                100%{transform: translate(0, 0)}
            }

            .triangle-float3 {
                animation: float3 6s infinite;
            }
        </style></defs></svg>