<svg xmlns="http://www.w3.org/2000/svg" version="1.1" xmlns:xlink="http://www.w3.org/1999/xlink" xmlns:svgjs="http://svgjs.com/svgjs" width="1440" height="560" preserveAspectRatio="none" viewBox="0 0 1440 560"><g mask="url(&quot;#SvgjsMask1041&quot;)" fill="none"><rect width="1440" height="560" x="0" y="0" fill="rgba(185, 230, 255, 1)"></rect><path d="M0,409.813C75.919,419.143,138.504,356.136,207.015,322.122C285.017,283.396,395.483,276.327,429.953,196.353C464.532,116.126,384.761,32.862,368.704,-53.012C353.563,-133.985,396.199,-234.529,338.408,-293.232C280.076,-352.485,177.347,-309.091,96.695,-329.312C20.652,-348.378,-43.547,-426.182,-119.836,-408.124C-196.039,-390.086,-226.091,-299.525,-277.755,-240.676C-329.826,-181.364,-398.369,-135.5,-424.543,-61.04C-453.683,21.857,-483.81,126.415,-431.652,197.129C-377.819,270.113,-258.06,234.881,-176.709,274.964C-108.871,308.389,-75.061,400.588,0,409.813" fill="#a3deff"></path><path d="M1440 851.297C1504.943 858.394 1575.828 892.13 1631.883 858.576 1687.916 825.0360000000001 1697.016 748.535 1716.04 686.063 1732.863 630.8199999999999 1738.415 575.164 1735.755 517.477 1732.838 454.218 1741.693 382.371 1699.845 334.84299999999996 1658.026 287.348 1585.516 287.925 1523.326 276.218 1466.945 265.605 1409.978 254.123 1354.817 269.893 1299.43 285.728 1255.034 323.682 1214.419 364.533 1171.304 407.898 1126.253 453.278 1113.113 513.001 1099.549 574.648 1112.164 640.423 1141.41 696.361 1169.841 750.741 1218.833 791.126 1273.301 819.389 1324.557 845.985 1382.597 845.024 1440 851.297" fill="#cfeeff"></path></g><defs><mask id="SvgjsMask1041"><rect width="1440" height="560" fill="#ffffff"></rect></mask></defs></svg>