<svg xmlns="http://www.w3.org/2000/svg" version="1.1" xmlns:xlink="http://www.w3.org/1999/xlink" xmlns:svgjs="http://svgjs.com/svgjs" width="1440" height="560" preserveAspectRatio="none" viewBox="0 0 1440 560"><g mask="url(&quot;#SvgjsMask1082&quot;)" fill="none"><rect width="1440" height="560" x="0" y="0" fill="rgba(216, 233, 243, 1)"></rect><path d="M0,515.815C96.946,517.793,199.533,484.748,266.397,414.522C329.535,348.209,317.616,244.494,342.288,156.318C362.534,83.959,394.019,17.728,398.408,-57.282C403.675,-147.29,425.384,-249.479,370.205,-320.784C314.902,-392.249,208.071,-387.923,121.781,-414.75C33.89,-442.075,-50.604,-497.792,-140.843,-479.668C-233.435,-461.071,-318.055,-398.411,-365.661,-316.847C-410.594,-239.862,-378.37,-144.411,-388.228,-55.819C-397.674,29.069,-445.416,110.648,-422.38,192.895C-397.929,280.196,-331.524,348.728,-259.501,403.791C-183.106,462.197,-96.144,513.853,0,515.815" fill="#5da4cd"></path><path d="M1440 1090.4189999999999C1538.547 1084.442 1575.036 952.7090000000001 1657.232 898.019 1737.445 844.649 1867.43 860.921 1912.726 775.887 1957.6689999999999 691.516 1902.563 588.105 1870.238 498.141 1842.937 422.158 1794.796 359.395 1741.338 298.889 1688.373 238.94 1635.583 176.87400000000002 1560.952 148.075 1482.772 117.90699999999998 1398.535 127.392 1315.028 134.385 1212.065 143.00799999999998 1090.217 120.541 1017.1700000000001 193.615 944.318 266.494 965.659 387.991 958.74 490.805 952.327 586.097 931.219 687.756 978.322 770.841 1024.3809999999999 852.0840000000001 1128.357 872.2860000000001 1205.146 925.44 1285.435 981.017 1342.531 1096.3310000000001 1440 1090.4189999999999" fill="#ffffff"></path></g><defs><mask id="SvgjsMask1082"><rect width="1440" height="560" fill="#ffffff"></rect></mask></defs></svg>